<svg width="869" height="81" viewBox="0 0 869 81" fill="none" xmlns="http://www.w3.org/2000/svg">
<g clip-path="url(#clip0_38_2)">
<mask id="mask0_38_2" style="mask-type:luminance" maskUnits="userSpaceOnUse" x="-69" y="-393" width="1000" height="848">
<path d="M931 -393H-69V455H931V-393Z" fill="white"/>
</mask>
<g mask="url(#mask0_38_2)">
<path d="M-0.378906 80.184V0.946905H23.8131C29.8718 0.946905 35.0771 1.9238 39.4291 3.87759C43.8661 5.83138 47.2801 8.58144 49.6691 12.1269C52.1441 15.6724 53.3811 19.87 53.3811 24.7181V56.3044C53.3811 61.1524 52.1441 65.3856 49.6691 69.004C47.2801 72.5495 43.8661 75.2996 39.4291 77.2533C35.0771 79.2071 29.8718 80.184 23.8131 80.184H-0.378906ZM11.1411 71.5005H23.8131C29.4451 71.5005 33.8401 70.1615 36.9971 67.4844C40.2401 64.8072 41.8611 61.0803 41.8611 56.3044V24.7181C41.8611 20.0142 40.2401 16.3237 36.9971 13.6466C33.8401 10.9694 29.4451 9.63042 23.8131 9.63042H11.1411V71.5005ZM95.3151 80.184L119.635 0.946905H135.123L159.315 80.184H147.667L141.523 59.1265H113.235L107.091 80.184H95.3151ZM115.539 50.8771H139.091L131.923 26.4548C130.558 21.8238 129.491 17.9519 128.723 14.8405C127.955 11.7292 127.486 9.70251 127.315 8.76208C127.144 9.70251 126.675 11.7292 125.907 14.8405C125.139 17.9519 124.072 21.7873 122.707 26.3462L115.539 50.8771ZM228.897 81.2695C222.753 81.2695 217.462 80.4011 213.025 78.6644C208.673 76.9277 205.302 74.4312 202.913 71.1749C200.524 67.9185 199.286 64.0474 199.201 59.5607H210.721C210.721 63.5403 212.3 66.6881 215.457 69.004C218.7 71.3199 223.18 72.4774 228.897 72.4774C234.273 72.4774 238.454 71.3555 241.441 69.1125C244.513 66.8696 246.049 63.7574 246.049 59.7777C246.049 56.5935 245.025 53.8078 242.977 51.4199C241.014 49.0319 238.156 47.3673 234.401 46.4269L221.729 43.062C215.329 41.3974 210.38 38.6117 206.881 34.7041C203.468 30.7965 201.761 26.2012 201.761 20.919C201.761 16.6493 202.87 12.9588 205.089 9.84751C207.393 6.66327 210.593 4.20322 214.689 2.46651C218.785 0.65773 223.606 -0.24707 229.153 -0.24707C237.345 -0.24707 243.916 1.70671 248.865 5.61429C253.814 9.4498 256.332 14.587 256.417 21.0275H244.897C244.897 17.12 243.489 14.0807 240.673 11.9099C237.942 9.6669 234.06 8.54498 229.025 8.54498C224.076 8.54498 220.193 9.55835 217.377 11.5842C214.646 13.6101 213.281 16.4322 213.281 20.0507C213.281 23.307 214.305 26.1291 216.353 28.5171C218.401 30.905 221.345 32.6053 225.185 33.6187L237.985 37.0921C244.214 38.7567 249.036 41.5789 252.449 45.5585C255.862 49.5382 257.569 54.2055 257.569 59.5607C257.569 63.9024 256.374 67.7015 253.985 70.9578C251.596 74.2141 248.225 76.7471 243.873 78.5559C239.606 80.3647 234.614 81.2695 228.897 81.2695ZM329.967 81.2695C323.823 81.2695 318.532 80.4011 314.095 78.6644C309.743 76.9277 306.372 74.4312 303.983 71.1749C301.594 67.9185 300.356 64.0474 300.271 59.5607H311.791C311.791 63.5403 313.37 66.6881 316.527 69.004C319.77 71.3199 324.25 72.4774 329.967 72.4774C335.343 72.4774 339.524 71.3555 342.511 69.1125C345.583 66.8696 347.119 63.7574 347.119 59.7777C347.119 56.5935 346.095 53.8078 344.047 51.4199C342.084 49.0319 339.226 47.3673 335.471 46.4269L322.799 43.062C316.399 41.3974 311.45 38.6117 307.951 34.7041C304.538 30.7965 302.831 26.2012 302.831 20.919C302.831 16.6493 303.94 12.9588 306.159 9.84751C308.463 6.66327 311.663 4.20322 315.759 2.46651C319.855 0.65773 324.676 -0.24707 330.223 -0.24707C338.415 -0.24707 344.986 1.70671 349.935 5.61429C354.884 9.4498 357.402 14.587 357.487 21.0275H345.967C345.967 17.12 344.559 14.0807 341.743 11.9099C339.012 9.6669 335.13 8.54498 330.095 8.54498C325.146 8.54498 321.263 9.55835 318.447 11.5842C315.716 13.6101 314.351 16.4322 314.351 20.0507C314.351 23.307 315.375 26.1291 317.423 28.5171C319.471 30.905 322.415 32.6053 326.255 33.6187L339.055 37.0921C345.284 38.7567 350.106 41.5789 353.519 45.5585C356.932 49.5382 358.639 54.2055 358.639 59.5607C358.639 63.9024 357.444 67.7015 355.055 70.9578C352.666 74.2141 349.295 76.7471 344.943 78.5559C340.676 80.3647 335.684 81.2695 329.967 81.2695ZM404.029 80.184V0.946905H415.549V34.8126H445.501V0.946905H457.021V80.184H445.501V43.7132H415.549V80.184H404.029ZM531.595 81.2695C525.963 81.2695 521.099 80.3647 517.003 78.5559C512.992 76.7471 509.878 74.142 507.659 70.7407C505.526 67.2673 504.459 63.1791 504.459 58.4752V22.6557C504.459 17.8798 505.526 13.7916 507.659 10.3902C509.878 6.98892 512.992 4.38386 517.003 2.57508C521.099 0.766292 525.963 -0.138534 531.595 -0.138534C537.227 -0.138534 542.048 0.766292 546.059 2.57508C550.155 4.38386 553.27 6.98892 555.403 10.3902C557.622 13.7916 558.731 17.8433 558.731 22.5472V58.4752C558.731 63.1791 557.622 67.2673 555.403 70.7407C553.27 74.142 550.155 76.7471 546.059 78.5559C542.048 80.3647 537.227 81.2695 531.595 81.2695ZM531.595 72.4774C536.63 72.4774 540.47 71.2834 543.115 68.8954C545.846 66.4354 547.211 62.962 547.211 58.4752V22.6557C547.211 18.1689 545.846 14.732 543.115 12.344C540.47 9.88398 536.63 8.65354 531.595 8.65354C526.646 8.65354 522.806 9.88398 520.075 12.344C517.344 14.732 515.979 18.1689 515.979 22.6557V58.4752C515.979 62.962 517.344 66.4354 520.075 68.8954C522.806 71.2834 526.646 72.4774 531.595 72.4774ZM606.041 80.184V0.946905H634.969C640.516 0.946905 645.38 1.9238 649.561 3.87759C653.742 5.7593 656.985 8.39997 659.289 11.8013C661.593 15.2026 662.745 19.1823 662.745 23.7411C662.745 29.0963 661.081 33.6907 657.753 37.5262C654.51 41.3618 650.073 44.0024 644.441 45.4499L664.025 80.184H650.457L632.537 46.5354H617.561V80.184H606.041ZM617.561 37.7433H634.969C639.748 37.7433 643.588 36.4772 646.489 33.9443C649.39 31.3392 650.841 27.9379 650.841 23.7411C650.841 19.4715 649.39 16.071 646.489 13.538C643.588 11.005 639.748 9.73898 634.969 9.73898H617.561V37.7433ZM727.975 80.184V9.73898H702.375V0.838369H765.095V9.73898H739.495V80.184H727.975ZM829.045 80.184V50.5515L800.885 0.946905H812.789L831.349 33.5101C832.373 35.3189 833.184 36.875 833.781 38.1775C834.378 39.4079 834.762 40.3119 834.933 40.8911C835.104 40.3119 835.488 39.4079 836.085 38.1775C836.768 36.875 837.621 35.3189 838.645 33.5101L856.821 0.946905H868.725L840.565 50.5515V80.184H829.045Z" fill="url(#paint0_linear_38_2)"/>
</g>
</g>
<defs>
<linearGradient id="paint0_linear_38_2" x1="1112" y1="31.4241" x2="-251" y2="31.4241" gradientUnits="userSpaceOnUse">
<stop stop-color="#B200FF"/>
<stop offset="0.505" stop-color="#CCCCCC"/>
<stop offset="1" stop-color="#00CAE3"/>
</linearGradient>
<clipPath id="clip0_38_2">
<rect width="869" height="81" fill="white"/>
</clipPath>
</defs>
</svg>
